<svg version="1.1" xmlns="http://www.w3.org/2000/svg" xmlns:xlink="http://www.w3.org/1999/xlink" width="16" height="16" viewBox="0,0,16,16">
	<desc>restaurant icon - Licensed under Apache License v2.0 (http://www.apache.org/licenses/LICENSE-2.0) - Created with Iconfu.com - Derivative work of Material icons (Copyright Google Inc.)</desc>
	<g fill="none" fill-rule="nonzero" style="mix-blend-mode: normal">
		<path d="M12.9,16h-9.8c-1.71,0 -3.1,-1.39 -3.1,-3.1v-9.8c0,-1.71 1.39,-3.1 3.1,-3.1h9.8c1.71,0 3.1,1.39 3.1,3.1v9.8c0,1.71 -1.39,3.1 -3.1,3.1z" fill="#fbdfdb"/>
		<path d="M7.56,3.29h0.89c0.15,0 0.28,0.13 0.28,0.28v3.1c0,1 -0.72,1.82 -1.66,2.01v3.76c0,0.15 -0.13,0.28 -0.28,0.28h-1.11c-0.15,0 -0.28,-0.13 -0.28,-0.28v-3.76c-0.94,-0.18 -1.66,-1.01 -1.66,-2.01v-3.1c0,-0.15 0.13,-0.28 0.28,-0.28h0.89c0.15,0 0.28,0.13 0.28,0.28v2.82h0.33v-2.82c0,-0.15 0.13,-0.28 0.28,-0.28h0.89c0.15,0 0.28,0.13 0.28,0.28v2.82h0.33v-2.82c0,-0.15 0.13,-0.28 0.28,-0.28zM12.27,3.57v8.87c0,0.15 -0.13,0.28 -0.28,0.28h-1.11c-0.15,0 -0.28,-0.13 -0.28,-0.28v-3.27h-0.83c-0.15,0 -0.28,-0.13 -0.28,-0.28v-3.55c0,-0.97 1.16,-2.05 2.5,-2.05c0.15,0 0.28,0.13 0.28,0.28z" fill="#000000"/>
		<path d="M7.56,3.57h0.89v3.1c0,0.94 -0.74,1.7 -1.66,1.76v4h-1.11v-4c-0.93,-0.06 -1.66,-0.82 -1.66,-1.76v-3.1h0.89v3.1h0.89v-3.1h0.89v3.1h0.89zM11.99,3.57v8.87h-1.11v-3.55h-1.11v-3.55c0,-0.78 0.99,-1.77 2.22,-1.77z" fill="#ffffff"/>
	</g>
</svg>